/* XPM */
static char *result[] = {
/* columns rows colors chars-per-pixel */
"40 40 6 1 ",
"  c #402820",
". c #687098",
"X c #98A0D0",
"o c #B8B8D0",
"O c #8080FF",
"+ c #D0D8E8",
/* pixels */
"OOOOOOOOOOOOOOOOOOOOOOOOOOOOOOOOOOOOOOOO",
"OOOOOOOOOOOOOOOOOOOOOOOOOOOOOOOOOOOOOOOO",
"OOOOOOOOOOOOOOOOOOOOOOOOOOOOOOOOOOOOOOOO",
"OOOOOOOOOOOOOOOOOOOOOOOOOOOOOOOOOOOOOOOO",
"OOOOOOOOOOOOOOOOOOOOOOOOOOOOOOOOOOOOOOOO",
"OOOOOOOOOOOOOOOOOOOOOOOOOOOOOOOOOOOOOOOO",
"OOOOOOOOOOOOOOOOOOOOOOOOOOOOOOOOOOOOOOOO",
"OOOOOOOOOOOOOOOOOOOOOOOOOOOOOOOOOOOOOOOO",
"OOOOOO                            OOOOOO",
"OOOOO ++++++++++++++++++++++++++++ OOOOO",
"OOOO ++                          ++ OOOO",
"OOOO + .......................... + OOOO",
"OOOO + .X.X.X.X.X.X.X.X.X.X.X.X.. + OOOO",
"OOOO + ..+++++++++.+++.+.+.+.+++. + OOOO",
"OOOO + .X++XX+++++X+..X+X+X+X.+.. + OOOO",
"OOOO + ..+X..X++++X+XXX+++X+XX+X. + OOOO",
"OOOO + .X+X..o++++X++XX.+.X+XX+.. + OOOO",
"OOOO + ..++X....o+X+.XX+++X+XX+X. + OOOO",
"OOOO + .X++...X.X+X+XXX+.+X+XX+.. + OOOO",
"OOOO + ..+X.X.o+.+X+++X+X+X+XX+X. + OOOO",
"OOOO + .X..+X.X+.oX...X.X.X.XX... + OOOO",
"OOOO + ..oo+o..+++XXXXXXXXXXXX.X. + OOOO",
"OOOO + .X+++...+++XXXXXXXXXXXXX.. + OOOO",
"OOOO + ..++X.o.XXX+XXXXXXXXXXX.X. + OOOO",
"OOOO + .X+o.X+.....+XXXXXXXXXXX.. + OOOO",
"OOOO + ..+..++++++ooXXXXXXXXXX.X. + OOOO",
"OOOO + .Xo.o++++++X.X.X.X.X.X.X.. + OOOO",
"OOOO + ..+o+++++++oX.X.X.X.X.X.X. + OOOO",
"OOOO + ..o..+++++++o............. + OOOO",
"OOOO ++                          ++ OOOO",
"OOOOO ++++++++++++++++++++++++++++ OOOOO",
"OOOOOO                            OOOOOO",
"OOOOOOOOOOOOOOOOOOOOOOOOOOOOOOOOOOOOOOOO",
"OOOOOOOOOOOOOOOOOOOOOOOOOOOOOOOOOOOOOOOO",
"OOOOOOOOOOOOOOOOOOOOOOOOOOOOOOOOOOOOOOOO",
"OOOOOOOOOOOOOOOOOOOOOOOOOOOOOOOOOOOOOOOO",
"OOOOOOOOOOOOOOOOOOOOOOOOOOOOOOOOOOOOOOOO",
"OOOOOOOOOOOOOOOOOOOOOOOOOOOOOOOOOOOOOOOO",
"OOOOOOOOOOOOOOOOOOOOOOOOOOOOOOOOOOOOOOOO",
"OOOOOOOOOOOOOOOOOOOOOOOOOOOOOOOOOOOOOOOO"
};
