/* XPM */
static char *result[] = {
/* columns rows colors chars-per-pixel */
"40 40 10 1 ",
"  c gray25",
". c #F80000",
"X c #A03870",
"o c #589850",
"O c #98D838",
"+ c #F8F038",
"@ c #3838B8",
"# c #D858B8",
"$ c #8080FF",
"% c #F8F8F0",
/* pixels */
"$$$$$$$$$$$$$$$$$$$$$$$$$$$$$$$$$$$$$$$$",
"$$$$$$$$$$$$$$$$$$$$$$$$$$$$$$$$$$$$$$$$",
"$$$$$$$$$$$$$$$$$$$$$$$$$$$$$$$$$$$$$$$$",
"$$$$$$$$$$$$$$$$$$$$$$$$$$$$$$$$$$$$$$$$",
"$$$$$$$$$$$$$$$$$$$$$$$$$$$$$$$$$$$$$$$$",
"$$$$$$$$$$$$$$$$$$$$$$$$$$$$$$$$$$$$$$$$",
"$$$$$$$$$$$$$$$$$$$$$$$$$$$$$$$$$$$$$$$$",
"$$$$$$$$$$$$$$$$$$$$$$$$$$$$$$$$$$$$$$$$",
"$$$$$$$$$$$$$$$$$$$$$$$$$$$$$$$$$$$$$$$$",
"$$$$$$$$$$$$$$$$$$$$$$$$$$$$$$$$$$$$$$$$",
"$$$$$$$$$$$$$$$$$$$$$$$$$$$$$$$$$$$$$$$$",
"$$$$$$$$$$$$$$$$$$$$$$$$$$$$$$$$$$$$$$$$",
"$$$$$$$$$ OOOOOOOO $$ OOOOOOOO $$$$$$$$$",
"$$$$$$$$  oooooooo    oooooooo  $$$$$$$$",
"$$$$$$$$ oO    OOOo  oO    OOOo $$$$$$$$",
"$$$$$$$$ oOOOOOOOOo  oOOOOOOOOo $$$$$$$$",
"$$$$$$$$ oOo@OO OOOOOOOO OO@O@o $$$$$$$$",
"$$$$$$$$ o@@o@  oooooooo  @@@@o $$$$$$$$",
"$$$$$$$$ oO@OO oO    OOOo O@OOo $$$$$$$$",
"$$$$$$$$ o@o@@ oOOOOOOOOo @o@@o $$$$$$$$",
"$$$$$$$$ oOOOO oOo@OO@O@o OOOO. $$$$$$$$",
"$$$$$$$$ oOOX# o@@o@@@@@o #XOO.@$$$$$$$$",
"$$$$$$$$ oOX#X oO@OOO@OOo X#X@@@$$$$$$$$",
"$$$$$$$$ oO@%% o@o@@@o@@o %#X++@$$$$$$$$",
"$$$$$$$$ @@+X# oOOOOOOOO. XX@@@ $$$$$$$$",
"$$$$$$$$@++@@X oOOX##XOO.@##XO. $$$$$$$$",
"$$$$$$$$@@@OX# oOX#XX#X@@@###Xo $$$$$$$$",
"$$$$$$$$$@@@X@ oO@%%%#X++@@@X  $$$$$$$$$",
"$$$$$$$$$$$$$$ @@+X#XX@@@ $$$$$$$$$$$$$$",
"$$$$$$$$$$$$$$@++@@X##XO. $$$$$$$$$$$$$$",
"$$$$$$$$$$$$$$@@@OX####Xo $$$$$$$$$$$$$$",
"$$$$$$$$$$$$$$$@@@X@@@X  $$$$$$$$$$$$$$$",
"$$$$$$$$$$$$$$$$$$$$$$$$$$$$$$$$$$$$$$$$",
"$$$$$$$$$$$$$$$$$$$$$$$$$$$$$$$$$$$$$$$$",
"$$$$$$$$$$$$$$$$$$$$$$$$$$$$$$$$$$$$$$$$",
"$$$$$$$$$$$$$$$$$$$$$$$$$$$$$$$$$$$$$$$$",
"$$$$$$$$$$$$$$$$$$$$$$$$$$$$$$$$$$$$$$$$",
"$$$$$$$$$$$$$$$$$$$$$$$$$$$$$$$$$$$$$$$$",
"$$$$$$$$$$$$$$$$$$$$$$$$$$$$$$$$$$$$$$$$",
"$$$$$$$$$$$$$$$$$$$$$$$$$$$$$$$$$$$$$$$$"
};
