/* XPM */
static char *result[] = {
/* columns rows colors chars-per-pixel */
"40 40 15 1 ",
"  c #282018",
". c #581800",
"X c #605800",
"o c #901800",
"O c #C81800",
"+ c #F82000",
"@ c #804000",
"# c #A86830",
"$ c #F8D838",
"% c #D09860",
"& c #6F3198",
"* c #0068E8",
"= c #00C8F8",
"- c #F8C090",
"; c #F8F8F8",
/* pixels */
"&&&&&&&&&&&&&&&&&&&&&&&&&&&&&&&&&&&&&&&&",
"&&&&&&&&&&&&&&&&&&&&&&&&&&&&&&&&&&&&&&&&",
"&&&&&&&&&&&&&&&&&&&&&&&&&&&&&&&&&&&&&&&&",
"&&&&&&&&&&&&&&&&&&&&&&&&&&&&&&&&&&&&&&&&",
"&&&&&&&&&&&&&&&&&&&&&&&&&&&&&&&&&&&&&&&&",
"&&&&&&&&&&&&&&&&       & &&&&&&&&&&&&&&&",
"&&&&&&&&&&&&&&            &&&&&&&&&&&&&&",
"&&&&&&&&&&&&&    -  --  -  &&&&&&&&&&&&&",
"&&&&&&&&&&&&  @ --- -- --- &&&&&&&&&&&&&",
"&&&&&&&&&&&&  %-   #--#   @&&&&&&&&&&&&&",
"&&&&&&&&&&&   - %-- -- --- &&&&&&&&&&&&&",
"&&&&&&&&&&&  @--#  %--%  #@&&&&&&&&&&&&&",
"&&&&&&&&&&   %--  ; --  ; #@@&&&&&&&&&&&",
"&&&&&&&&&&@#@---    --    --%@&&&&&&&&&&",
"&&&&&&&&&@#-%---%  %--%  #---%@&&&&&&&&&",
"&&&&&&&&&@--------------------@&&&&&&&&&",
"&&&&&&&&@#--------------------@&&&&&&&&&",
"&&&&&&&&@%---------------oo--%@&&&&&&&&&",
"&&&&&&&&&@#-%@@@#%------o+o-%@&&&&&&&&&&",
"&&&&&&&&&&@@@.OO@@@#%---o+o@@&&&&&&&&&&&",
"&&&&&&&&&&&.O+++++O@@@@@@oo.&&&&&&&&&&&&",
"&&&&&&&&&&&.+++o+++++++++++.&&&&&&&&&&&&",
"&&&&&&&&&&&.++.++++++++++o+O.&&&&&&&&&&&",
"&&&&&&&&&&&.+.o++++++++++O.+.&&&&&&&&&&&",
"&&&&&&&&&&&...+++++++++++O...&&&&&&&&&&&",
"&&&&&&&&&&@--.+Oooo++Ooo++.-@&&&&&&&&&&&",
"&&&&&&&&&&@--.oo#$#ooo#$oo.-@&&&&&&&&&&&",
"&&&&&&&&&&&@@X$$$$$$$$$$$$X@&&&&&&&&&&&&",
"&&&&&&&&&&&&&X$$$$$$X#$$$$X&&&&&&&&&&&&&",
"&&&&&&&&&&&&&XXXXXXXXXXXXXX&&&&&&&&&&&&&",
"&&&&&&&&&&&&&&@#-@&&&&@-#@&&&&&&&&&&&&&&",
"&&&&&&&&&&&&&&&@-@&&&&@-@&&&&&&&&&&&&&&&",
"&&&&&&&&&&&&&**;;;&&&&;;;**&&&&&&&&&&&&&",
"&&&&&&&&&&&&*====*&&&&*====*&&&&&&&&&&&&",
"&&&&&&&&&&&&******&&&&******&&&&&&&&&&&&",
"&&&&&&&&&&&&&&&&&&&&&&&&&&&&&&&&&&&&&&&&",
"&&&&&&&&&&&&&&&&&&&&&&&&&&&&&&&&&&&&&&&&",
"&&&&&&&&&&&&&&&&&&&&&&&&&&&&&&&&&&&&&&&&",
"&&&&&&&&&&&&&&&&&&&&&&&&&&&&&&&&&&&&&&&&",
"&&&&&&&&&&&&&&&&&&&&&&&&&&&&&&&&&&&&&&&&"
};
