/* XPM */
static char *result[] = {
/* columns rows colors chars-per-pixel */
"40 40 2 1 ",
"  c #F8E068",
". c #F8E8A8",
/* pixels */
"                                        ",
"  ...     ...     ...     ...     ...   ",
" .....   .....   .....   .....   .....  ",
"....... ....... ....... ....... ....... ",
"....... ....... ....... ....... ....... ",
"....... ....... ....... ....... ....... ",
" .....   .....   .....   .....   .....  ",
"  ...     ...     ...     ...     ...   ",
"                                        ",
"  ...     ...     ...     ...     ...   ",
" .....   .....   .....   .....   .....  ",
"....... ....... ....... ....... ....... ",
"....... ....... ....... ....... ....... ",
"....... ....... ....... ....... ....... ",
" .....   .....   .....   .....   .....  ",
"  ...     ...     ...     ...     ...   ",
"                                        ",
"  ...     ...     ...     ...     ...   ",
" .....   .....   .....   .....   .....  ",
"....... ....... ....... ....... ....... ",
"....... ....... ....... ....... ....... ",
"....... ....... ....... ....... ....... ",
" .....   .....   .....   .....   .....  ",
"  ...     ...     ...     ...     ...   ",
"                                        ",
"  ...     ...     ...     ...     ...   ",
" .....   .....   .....   .....   .....  ",
"....... ....... ....... ....... ....... ",
"....... ....... ....... ....... ....... ",
"....... ....... ....... ....... ....... ",
" .....   .....   .....   .....   .....  ",
"  ...     ...     ...     ...     ...   ",
"                                        ",
"  ...     ...     ...     ...     ...   ",
" .....   .....   .....   .....   .....  ",
"....... ....... ....... ....... ....... ",
"....... ....... ....... ....... ....... ",
"....... ....... ....... ....... ....... ",
" .....   .....   .....   .....   .....  ",
"  ...     ...     ...     ...     ...   "
};
